<?xml version="1.0" encoding="utf-8"?>
<!-- Generator: Adobe Illustrator 16.0.0, SVG Export Plug-In . SVG Version: 6.00 Build 0)  -->
<!DOCTYPE svg PUBLIC "-//W3C//DTD SVG 1.1//EN" "http://www.w3.org/Graphics/SVG/1.1/DTD/svg11.dtd">
<svg version="1.1" id="Layer_1" xmlns="http://www.w3.org/2000/svg" xmlns:xlink="http://www.w3.org/1999/xlink" x="0px" y="0px"
	 width="20px" height="20px" viewBox="0 0 30.011 17.123" enable-background="new 0 0 30.011 17.123" xml:space="preserve">
<g>
  <path d="M72.09.02L59.62 0c-14 0-23.05 9.29-23.05 23.66v10.9H24.04c-1.09 0-1.96.88-1.96 1.96v15.8c0 1.09.87 1.97 1.96 1.97h12.53v39.87c0 1.09.88 1.96 1.96 1.96h16.35c1.09 0 1.96-.88 1.96-1.96V54.3H71.5c1.08 0 1.96-.88 1.96-1.96v-15.8a1.96 1.96 0 0 0-1.96-1.97H56.84v-9.24c0-4.45 1.06-6.7 6.85-6.7h8.4c1.08 0 1.96-.88 1.96-1.97V1.98c0-1.08-.88-1.96-1.96-1.96z" data-original="#000000" class="active-path"/></g>
</svg>
