<svg xmlns="http://www.w3.org/2000/svg" viewBox="0 0 34.61 34.46"><title>file</title><circle cx="6.85" cy="7.33" r="3.05" fill="#00bfa5"/><path d="M17.75,8.88a1.09,1.09,0,0,0-2-.05l-2.87,4.59a1.84,1.84,0,0,1-2.59.66,2.2,2.2,0,0,0-2.82.49L4.58,17.93c-0.71.84-.39,1.52,0.71,1.52H21.67a1.08,1.08,0,0,0,1-1.75Z" fill="#00bfa5"/><path d="M27.5,20.7V1a1,1,0,0,0-1-1H1A1,1,0,0,0,0,1V26.12a1,1,0,0,0,1,1H20.85A6.65,6.65,0,0,1,27.5,20.7ZM2.63,2.8H24.57V20.55H2.63V2.8Z" fill="#00bfa5"/><path d="M27.5,20.93a6.42,6.42,0,1,0,6.42,6.42A6.42,6.42,0,0,0,27.5,20.93Zm4.09,7h-3.5v3.5H26.92v-3.5h-3.5V26.77h3.5v-3.5h1.17v3.5h3.5v1.17Z" fill="#00bfa5"/><circle cx="27.5" cy="27.35" r="6.66" fill="none" stroke="#fff" stroke-miterlimit="10" stroke-width="0.91"/></svg>