<svg xmlns="http://www.w3.org/2000/svg" viewBox="0 0 91.34 75.15"><defs><style>.a{fill-rule:evenodd;}</style></defs><title>quote</title><path class="a" d="M52.82,0.57c1.76,4.44,1,6.5-2.05,8.63a109.06,109.06,0,0,0-15,12.26c-5.18,5.24-7,12-5.42,19.34,1,4.66,3.39,5.71,8.08,4.85,3.81-.7,7.91-1.57,11.59-0.87,5.65,1.08,9.22,5.36,10.26,11,1.11,6-.18,11.54-5.46,15.57C41.51,81.53,21.32,73,17.49,55.09S20.73,22.73,34.4,11.56C39.8,7.15,46.46,4.29,52.82.57Z" transform="translate(-16.45 -0.57)"/><path class="a" d="M100.29,1.7c1.41,3.62.16,5.57-2.74,7.63A107.91,107.91,0,0,0,82.61,21.66c-5.14,5.28-6.85,12.06-5.21,19.4,0.94,4.18,3.55,5.65,7.8,4.62,3.19-.78,6.57-1.91,9.69-1.53,6.3,0.77,10.53,4.75,12.29,10.91a15.23,15.23,0,0,1-5.56,16.45c-13.25,9.92-32.85,1.41-37.18-16.16-2.33-9.47-.76-18.5,3.4-27.13C74,15.46,86.77,5,100.29,1.7Z" transform="translate(-16.45 -0.57)"/></svg>